<svg width="289" height="28" viewBox="0 0 289 28" fill="none" xmlns="http://www.w3.org/2000/svg">
<path d="M0.802446 23.3751H11.0918V22.8299L7.78908 22.413C6.83635 22.2848 6.13769 21.5472 6.13769 20.553V5.19201L19.2217 23.3751H20.6508V3.68477C20.6508 2.7227 21.3177 1.92097 22.2705 1.7927L24.684 1.47201V0.926835H14.3946V1.47201L17.6974 1.8889C18.6501 2.01718 19.3488 2.75477 19.3488 3.7489V18.0517L9.85331 4.5827C7.21744 0.862698 4.61333 0.926835 0.167297 0.926835V1.47201C2.1045 1.76063 4.00994 2.49821 4.83564 3.97339V20.6172C4.83564 21.5792 4.16873 22.381 3.21601 22.5093L0.802446 22.8299V23.3751Z" fill="white"/>
<path d="M42.5863 23.8882C49.4459 23.8882 54.4318 19.142 54.4318 12.151C54.4318 5.15994 49.4459 0.445801 42.5863 0.445801C35.7267 0.445801 30.709 5.15994 30.709 12.151C30.709 19.142 35.7267 23.8882 42.5863 23.8882ZM42.618 22.7658C36.9017 22.7658 34.5834 17.6668 34.5834 11.4134C34.5834 5.57684 37.0287 1.56822 42.5545 1.56822C48.1438 1.56822 50.5256 6.57097 50.5256 12.632C50.5256 18.661 48.3661 22.7658 42.618 22.7658Z" fill="white"/>
<path d="M71.3533 12.5358H71.6073C74.8783 21.6755 80.7217 25.7803 83.9292 27.8006C79.4196 21.5793 77.2919 17.4744 75.2594 12.2472C79.1021 11.5417 81.1028 9.71373 81.1028 6.57097C81.1028 2.53028 77.6095 0.926835 71.0357 0.926835H61.0956V1.47201L63.1281 1.72856C64.0808 1.85684 64.7795 2.59442 64.7795 3.58856V20.7134C64.7795 21.7075 64.0808 22.4451 63.1281 22.5734L61.0956 22.8299V23.3751H72.1472V22.8299L70.1147 22.5734C69.162 22.4451 68.4633 21.7075 68.4633 20.7134V12.5358H71.3533ZM68.4633 2.04925H71.8296C76.0216 2.04925 77.7365 3.55649 77.7365 6.73132C77.7365 9.90615 75.7993 11.4134 71.3215 11.4134H68.4633V2.04925Z" fill="white"/>
<path d="M89.9626 23.3751H100.824C108.699 23.3751 113.749 19.3344 113.749 12.2151C113.749 4.74304 108.699 0.926835 100.824 0.926835H89.9626V1.47201L91.9951 1.72856C92.9478 1.85684 93.6465 2.59442 93.6465 3.58856V20.7134C93.6465 21.7075 92.9478 22.4451 91.9951 22.5734L89.9626 22.8299V23.3751ZM98.9817 22.2527C98.029 22.2527 97.3303 21.7075 97.3303 20.7134V2.04925H100.316C105.016 2.04925 109.906 4.06959 109.906 12.2151C109.906 19.7513 105.587 22.2527 100.316 22.2527H98.9817Z" fill="white"/>
<path d="M120.721 23.3751H131.773V22.8299L129.741 22.5734C128.788 22.4451 128.089 21.7075 128.089 20.7134V3.58856C128.089 2.59442 128.788 1.85684 129.741 1.72856L131.773 1.47201V0.926835H120.721V1.47201L122.754 1.72856C123.707 1.85684 124.405 2.59442 124.405 3.58856V20.7134C124.405 21.7075 123.707 22.4451 122.754 22.5734L120.721 22.8299V23.3751Z" fill="white"/>
<path d="M150.626 23.8561C154.31 23.8561 158.248 22.4451 160.82 20.0079V18.0837C158.343 20.4248 154.945 21.6113 151.579 21.6113C146.72 21.6113 142.75 18.1799 142.75 12.151C142.75 5.83339 145.481 1.56822 150.626 1.56822C155.263 1.56822 157.708 5.5127 157.136 12.4396H157.994L159.899 3.87718C158.089 1.7927 153.167 0.445801 150.626 0.445801C143.449 0.445801 138.749 5.15994 138.749 12.151C138.749 19.1741 143.512 23.8561 150.626 23.8561Z" fill="white"/>
<path d="M192.056 12.5358H192.31C195.581 21.6755 201.425 25.7803 204.632 27.8006C200.123 21.5793 197.995 17.4744 195.962 12.2472C199.805 11.5417 201.806 9.71373 201.806 6.57097C201.806 2.53028 198.312 0.926835 191.739 0.926835H181.799V1.47201L183.831 1.72856C184.784 1.85684 185.482 2.59442 185.482 3.58856V20.7134C185.482 21.7075 184.784 22.4451 183.831 22.5734L181.799 22.8299V23.3751H192.85V22.8299L190.818 22.5734C189.865 22.4451 189.166 21.7075 189.166 20.7134V12.5358H192.056ZM189.166 2.04925H192.533C196.725 2.04925 198.439 3.55649 198.439 6.73132C198.439 9.90615 196.502 11.4134 192.024 11.4134H189.166V2.04925Z" fill="white"/>
<path d="M222.202 23.8882C229.061 23.8882 234.047 19.142 234.047 12.151C234.047 5.15994 229.061 0.445801 222.202 0.445801C215.342 0.445801 210.324 5.15994 210.324 12.151C210.324 19.142 215.342 23.8882 222.202 23.8882ZM222.233 22.7658C216.517 22.7658 214.199 17.6668 214.199 11.4134C214.199 5.57684 216.644 1.56822 222.17 1.56822C227.759 1.56822 230.141 6.57097 230.141 12.632C230.141 18.661 227.982 22.7658 222.233 22.7658Z" fill="white"/>
<path d="M251.272 23.8561C256.036 23.8561 259.402 21.4189 259.402 17.8913C259.402 9.04028 246.477 9.93821 246.477 5.5127C246.477 3.2358 248.541 1.56822 251.939 1.56822C255.527 1.56822 257.211 3.97339 257.56 9.26477H258.417L258.735 1.98511C256.861 1.15132 254.479 0.445801 251.939 0.445801C246.985 0.445801 243.904 2.69063 243.904 5.83339C243.904 14.4599 256.861 13.2413 256.861 18.3724C256.861 20.9379 254.511 22.7337 251.589 22.7337C247.81 22.7337 245.905 20.1041 245.206 14.1713H244.349L243.714 21.7717C245.905 22.9903 247.937 23.8561 251.272 23.8561Z" fill="white"/>
<path d="M267.345 23.3751H287.924L288.877 15.8068H288.337C286.4 20.8737 284.716 22.2527 281.89 22.2527H276.364C275.412 22.2527 274.713 21.7075 274.713 20.7134V12.5358H282.049C282.906 12.5358 283.764 13.1451 283.827 13.9789L284.177 17.731H284.716V6.5389H284.177L283.827 9.97029C283.732 10.8361 282.906 11.4134 282.049 11.4134H274.713V2.04925H281.255C283.605 2.04925 285.987 3.17166 287.257 8.52718H287.797L287.162 0.926835H267.345V1.47201L269.378 1.72856C270.33 1.85684 271.029 2.59442 271.029 3.58856V20.7134C271.029 21.7075 270.33 22.4451 269.378 22.5734L267.345 22.8299V23.3751Z" fill="white"/>
</svg>
